# xmcd
# 
# Track frame offsets:
#     150
#     12241
#     22144
#     36433
#     47094
#     58625
#     69292
#     79811
#     90974
#     102531
#     114101
#     124290
#     135235
#     145253
#     156599
#     169620
#     181712
#     192181
#     201805
#     213822
#     224448
#     238296
#     251187
#     264820
# 
# Disc length: 3671
# 
# Revision: 5
# Processed by: cddbd v1.5.2PL0 Copyright (c) Steve Scherf et al.
# Submitted via: BonkEnc v1.0.6
# 
DISCID=530e5518
DTITLE=Junior Wells - Calling All Blues
DYEAR=2000
DGENRE=Blues
TTITLE0=Two Headed Woman
TTITLE1=Lovey Dovey Lovey One
TTITLE2=I Could Cry (1957 version)
TTITLE3=Cha-cha-cha In Blue (Cut My Toe Nail)
TTITLE4=Little By Little (I'm Losing You)
TTITLE5=Come On In This House
TTITLE6=You Don't Care 
TTITLE7=Prison Bars All Around Me
TTITLE8=Calling All Blues
TTITLE9=Galloping Horses A Lazy Mule
TTITLE10=Messin' With The Kid
TTITLE11=You Sure Look Good To Me
TTITLE12=So Tired
TTITLE13=Universal Rock
TTITLE14=I Could Cry
TTITLE15=I'm a Stranger
TTITLE16=The Things I Do For You 
TTITLE17=Love Me
TTITLE18=It Hurts Me Too (When Things Go Wrong)
TTITLE19=I Need Me A Car 
TTITLE20=I'll Get You Too
TTITLE21=One Day (Every Goodbye Ain't Gone)
TTITLE22=She's A Sweet One
TTITLE23=When The Cat's Gone The Mice Play 
EXTD=
EXTT0=
EXTT1=
EXTT2=
EXTT3=
EXTT4=
EXTT5=
EXTT6=
EXTT7=
EXTT8=
EXTT9=
EXTT10=
EXTT11=
EXTT12=
EXTT13=
EXTT14=
EXTT15=
EXTT16=
EXTT17=
EXTT18=
EXTT19=
EXTT20=
EXTT21=
EXTT22=
EXTT23=
PLAYORDER=
